<svg xmlns="http://www.w3.org/2000/svg" version="1.1" width="1280" height="285" >
<path fill="#18B2D6" preserveAspectRatio="none" style="fill-rule:evenodd;clip-rule:evenodd;fill:;" d="M700.912,0c10.789,0.633,21.577,1.267,32.365,1.898
    c27.416,1.601,54.845,3.021,82.245,4.854c22.578,1.511,45.153,3.196,67.676,5.375c26.318,2.544,52.632,5.28,78.847,8.713
    c29.983,3.926,59.959,8.111,89.753,13.255c51.271,8.852,102.079,19.807,150.39,39.878c20.797,8.639,40.883,18.761,57.648,34.157
    c5.329,4.893,10.16,10.641,14.02,16.755c8.254,13.082,8.072,26.779,0.396,40.178c-8.64,15.085-21.952,25.172-36.624,33.721
    c-7.874-1.037-15.605-2.054-24.309-3.198c2.038-1.122,3.443-1.786,4.735-2.624c9.326-6.048,18.818-11.866,27.851-18.328
    c3.849-2.752,7.044-6.621,9.976-10.416c11.012-14.252,10.289-29.064-1.803-42.489c-10.811-12.003-24.562-19.783-38.896-26.572
    c-28.34-13.42-58.251-22.346-88.538-30.021c-39.811-10.088-80.126-17.716-120.822-23.16c-31.804-4.254-63.646-8.322-95.56-11.635
    c-26.803-2.783-53.704-4.823-80.61-6.356c-41.049-2.34-82.137-4.008-123.215-5.837c-7.294-0.325-14.614-0.047-22.186-0.047
    c1.301-6.428,2.481-12.264,3.662-18.099C692.247,0,696.579,0,700.912,0z"/>
<path fill="#18B2D6" style="fill-rule:evenodd;clip-rule:evenodd;fill:;" d="M0,139.982c4.094-18.052,16.285-30.128,30.416-40.577
    c6.4-4.733,13.334-8.762,20.127-12.944c11.513-7.091,23.706-4.301,36.769-2.547c-8.323,3.939-15.848,7.262-23.155,11.01
    c-13.865,7.114-26.817,15.501-36.508,28.073c-13.434,17.427-12.316,34.159,3.327,49.453c1.901,1.858,3.918,3.623,6.025,5.243
    c14.279,10.982,30.673,17.853,47.321,24.216c40.154,15.349,81.614,26.063,123.786,33.922c31.522,5.873,63.16,11.266,94.904,15.756
    c27.983,3.957,56.138,6.909,84.301,9.326c37.806,3.247,75.672,5.901,113.551,8.143c27.422,1.624,54.908,2.163,82.366,3.188
    c1.77,0.066,3.538,0.159,5.859,0.265c-0.937,3.354-1.713,6.135-2.642,9.463c-10.854,0-21.325,0.171-31.79-0.031
    c-32.475-0.63-64.976-0.778-97.411-2.289c-33.911-1.579-67.814-3.906-101.616-7.037c-33.94-3.145-67.843-7.022-101.598-11.752
    c-64.371-9.017-127.44-23.403-187.096-50.068c-11.932-5.333-23.482-11.808-34.468-18.902C16.912,181.845,4.418,168.905,0,149.981
    C0,146.648,0,143.315,0,139.982z"/>
<path fill="black" style="fill-rule:evenodd;clip-rule:evenodd;fill:;" d="M825.979,116.961c9.329-0.001,18.659-0.014,27.988,0.01
    c1.997,0.005,4.017-0.025,5.986,0.247c9.659,1.333,12.918,5.031,12.969,14.908c0.073,14.16,0.069,28.322,0.003,42.482
    c-0.047,9.953-3.075,13.403-12.914,14.914c-1.966,0.301-3.98,0.389-5.974,0.391c-18.658,0.029-37.317,0.047-55.976-0.016
    c-2.646-0.01-5.314-0.316-7.932-0.741c-7.588-1.232-10.937-4.266-11.094-11.711c-0.339-15.984-0.325-31.985-0.008-47.971
    c0.145-7.265,3.344-10.339,10.545-11.705c2.597-0.493,5.273-0.747,7.918-0.772C806.987,116.906,816.483,116.961,825.979,116.961z
     M796.73,175.669c19.617,0,38.989,0,58.487,0c0-15.251,0-30.146,0-45.293c-19.603,0-38.854,0-58.487,0
    C796.73,145.509,796.73,160.56,796.73,175.669z"/>
<path fill="black" style="fill-rule:evenodd;clip-rule:evenodd;fill:;" d="M1198.023,137.499c-0.168-2.819-0.292-4.922-0.43-7.239
    c-16.826,0-33.386,0-50.249,0c0,4.993,0,9.729,0,15.199c1.888,0,3.653-0.014,5.42,0.002c16.145,0.138,32.293,0.081,48.43,0.509
    c7.78,0.207,11.45,3.155,12.091,10.572c0.68,7.878,0.135,15.902-0.389,23.829c-0.324,4.904-3.829,7.602-8.5,8.503
    c-2.926,0.565-5.931,0.989-8.902,1.007c-16.15,0.098-32.301,0.051-48.452,0.039c-1.33-0.002-2.668-0.039-3.99-0.183
    c-11.902-1.289-15.692-6.229-14.084-18.984c4.628-0.919,9.443-1.875,14.733-2.924c0,2.75,0,5.174,0,8.054
    c18.112,0,35.81,0,53.866,0c0-5.117,0-10.34,0-16.263c-2,0-3.929,0.016-5.857-0.002c-15.31-0.146-30.626-0.09-45.928-0.521
    c-10.184-0.286-13.711-4.027-14.093-14.102c-0.201-5.314-0.178-10.665,0.181-15.968c0.454-6.708,3.423-9.885,9.962-11.159
    c2.594-0.505,5.266-0.849,7.904-0.862c14.984-0.08,29.97-0.061,44.954-0.014c2.149,0.007,4.332,0.161,6.442,0.556
    c9.739,1.816,12.905,6.528,11.283,16.997C1207.856,135.48,1203.18,136.441,1198.023,137.499z"/>
<path fill="black" style="fill-rule:evenodd;clip-rule:evenodd;fill:;" d="M479.031,165.41c0-16.648,0-32.215,0-48.114c5.352,0,10.264,0,15.56,0
    c0,23.945,0,47.988,0,72.334c-3.766,0-7.539,0-11.971,0c-19.894-15.849-40.289-32.096-61.481-48.979c0,16.876,0,32.753,0,48.952
    c-5.549,0-10.598,0-15.93,0c0-24.061,0-47.982,0-72.275c3.884,0,7.796,0,12.32,0C437.372,132.84,457.691,148.727,479.031,165.41z"
    />
<path fill="black" style="fill-rule:evenodd;clip-rule:evenodd;fill:;" d="M245.636,145.804c0,4.479,0,8.075,0,12.24c-11.617,0-23.01,0-34.727,0
    c0,6.284,0,11.995,0,18.254c20.34,0,40.405,0,60.76,0c0,4.633,0,8.729,0,13.231c-25.948,0-51.988,0-78.413,0
    c0-23.893,0-47.919,0-72.26c25.718,0,51.429,0,77.433,0c0,3.999,0,7.901,0,12.329c-19.861,0-39.599,0-59.724,0
    c0,5.569,0,10.623,0,16.205C222.386,145.804,233.796,145.804,245.636,145.804z"/>
  <path fill="black" style="fill-rule:evenodd;clip-rule:evenodd;fill:;" d="M1028.77,117.367c0,19.649,0,39.047,0,58.705c17.115,0,33.706,0,50.775,0
    c0-19.513,0-38.923,0-58.722c6.16,0,11.853,0,17.836,0c0.097,1.406,0.263,2.696,0.265,3.986
    c0.018,16.489,0.016,32.978,0.006,49.466c-0.001,1.164-0.039,2.333-0.155,3.49c-1.19,11.871-4.263,15.209-16.329,15.459
    c-17.979,0.37-35.972,0.132-53.958,0.055c-2.307-0.01-4.641-0.46-6.907-0.959c-4.688-1.031-7.552-3.975-8.432-8.729
    c-0.333-1.799-0.764-3.621-0.77-5.433c-0.056-18.969-0.034-37.939-0.034-57.318C1016.789,117.367,1022.352,117.367,1028.77,117.367
    z"/>
  <path fill="black" style="fill-rule:evenodd;clip-rule:evenodd;fill:;" d="M921.921,156.972c0,11.383,0,21.796,0,32.58c-6.099,0-11.799,0-17.775,0
    c0-24.029,0-47.94,0-72.225c5.692,0,11.397,0,17.664,0c0,9.449,0,18.813,0,29.13c5.845-4.019,10.877-7.459,15.889-10.929
    c7.933-5.492,15.787-11.1,23.826-16.433c1.802-1.195,4.209-1.96,6.372-2.042c6.759-0.258,13.533-0.095,20.683,0.883
    c-16.054,10.768-32.105,21.536-48.851,32.769c18.455,12.917,36.562,25.59,55.609,38.924c-9.906,0-18.619,0-27.879,0
    C952.812,179.125,937.73,168.31,921.921,156.972z"/>
  <path fill="black" style="fill-rule:evenodd;clip-rule:evenodd;fill:;" d="M595.897,146.644c15.069-10.424,29.005-20.066,42.574-29.451
    c8.393,0,16.31,0,25.53,0c-17.092,11.463-33.179,22.252-49.969,33.513c18.519,12.961,36.542,25.575,54.564,38.19
    c-0.064,0.325-0.128,0.649-0.192,0.974c-8.532,0-17.066,0.094-25.594-0.098c-1.302-0.029-2.649-1.269-3.848-2.127
    c-12.722-9.108-25.415-18.258-38.125-27.381c-1.301-0.934-2.668-1.774-4.643-3.08c0,11.168,0,21.576,0,32.363
    c-5.97,0-11.548,0-17.569,0c0-23.882,0-47.91,0-72.266c5.596,0,11.161,0,17.271,0C595.897,126.692,595.897,136.077,595.897,146.644
    z"/>
  <path fill="black" style="fill-rule:evenodd;clip-rule:evenodd;fill:;" d="M387.828,189.857c-8.653,0-17.306,0-26.228,0
    c-14.823-10.636-29.798-21.383-45.63-32.743c0,11.255,0,21.727,0,32.499c-6.272,0-11.837,0-17.74,0c0-24.062,0-48.091,0-72.39
    c5.716,0,11.291,0,17.31,0c0,9.413,0,18.679,0,28.896c1.888-1.1,3.104-1.703,4.209-2.466c11.77-8.132,23.461-16.381,35.337-24.354
    c2.039-1.368,4.822-2.125,7.304-2.24c6.575-0.305,13.174-0.103,20.079,0.844c-16.072,10.773-32.144,21.547-48.926,32.795
    c18.498,12.946,36.61,25.621,54.721,38.296C388.119,189.283,387.974,189.571,387.828,189.857z"/>
  <path fill="black" style="fill-rule:evenodd;clip-rule:evenodd;fill:;" d="M116.118,116.715c-14.153,0-27.412,0-40.906,0c0-5.389,0-10.298,0-15.479
    c33.965,0,67.724,0,101.93,0c0,4.989,0,10.006,0,15.457c-13.435,0-26.704,0-40.579,0c0,24.46,0,48.509,0,72.896
    c-7.02,0-13.439,0-20.445,0C116.118,165.662,116.118,141.617,116.118,116.715z"/>
  <path fill="black" style="fill-rule:evenodd;clip-rule:evenodd;fill:;" d="M685.814,189.615c0-24.132,0-48.045,0-72.309c25.465,0,50.871,0,76.691,0
    c0,3.855,0,7.908,0,12.462c-19.398,0-38.961,0-58.951,0c0,6.513,0,12.545,0,19.166c10.455,0,20.844,0,31.476,0
    c0,4.637,0,8.694,0,13.251c-10.536,0-20.787,0-31.661,0c0,9.356,0,18.241,0,27.43C697.189,189.615,691.639,189.615,685.814,189.615
    z"/>
  <path fill="black" style="fill-rule:evenodd;clip-rule:evenodd;fill:;" d="M528.121,189.631c0-24.252,0-48.162,0-72.373c5.606,0,11.015,0,16.851,0
    c0,24.042,0,48.056,0,72.373C539.514,189.631,534.091,189.631,528.121,189.631z"/>
  <path fill="black" style="fill-rule:evenodd;clip-rule:evenodd;fill:none;" d="M796.73,175.669c0-15.109,0-30.161,0-45.293
    c19.634,0,38.885,0,58.487,0c0,15.147,0,30.042,0,45.293C835.72,175.669,816.348,175.669,796.73,175.669z"/>
</svg>
